<?xml version="1.0" encoding="UTF-8"?>
<svg version="1.1" xmlns="http://www.w3.org/2000/svg" width="200" height="200" viewBox='-89.5 -32.5 125 125'>
<path d="M0 0 C11.19377468 6.99610917 22.63772563 4.81962743 35 2.875 C35 3.865 35 4.855 35 5.875 C34.09121094 6.29910156 33.18242187 6.72320312 32.24609375 7.16015625 C31.64732422 7.43964111 31.04855469 7.71912598 30.43164062 8.00708008 C29.07765599 8.63881801 27.72348273 9.27015182 26.36914062 9.90112305 C23.06589422 11.4406881 19.76589633 12.98595944 16.47265625 14.546875 C-2.59389071 23.55469246 -22.05477922 31.63342362 -41.61132812 39.50927734 C-44.96696314 40.86168529 -48.31954896 42.22144518 -51.671875 43.58203125 C-61.03976536 47.37184206 -70.41174614 51.12238743 -79.9375 54.5 C-80.63568848 54.74790283 -81.33387695 54.99580566 -82.05322266 55.2512207 C-86.73616626 56.875 -86.73616626 56.875 -89 56.875 C-89 55.885 -89 54.895 -89 53.875 C-86.515625 52.0078125 -86.515625 52.0078125 -83.25 50 C-73.83426722 44.20045445 -69.8724498 36.37425601 -67.2265625 25.77734375 C-67.00742188 24.77832031 -66.78828125 23.77929688 -66.5625 22.75 C-64.15132835 12.47572969 -57.48189152 2.10680816 -48.546875 -3.7265625 C-32.30811556 -12.24443939 -14.92943318 -10.57501517 0 0 Z M-47.5625 15.5 C-51.23526442 21.1012366 -53 28.21083693 -53 34.875 C-45.7993705 33.30464995 -39.10851646 31.28481697 -32.35546875 28.33203125 C-29.80656352 27.22523072 -27.25595305 26.16574601 -24.67578125 25.13671875 C-23.92321045 24.83475586 -23.17063965 24.53279297 -22.39526367 24.22167969 C-20.91934674 23.63061455 -19.44172353 23.04378624 -17.9621582 22.46191406 C-13.57384487 20.68742174 -9.85062563 18.63320676 -6 15.875 C-11.58875985 9.58764516 -18.53094181 5.96681614 -27 5.4375 C-34.76689671 5.55304061 -42.58139309 9.57719129 -47.5625 15.5 Z M-0.27734375 28.77734375 C1.37587891 28.79474609 1.37587891 28.79474609 3.0625 28.8125 C4.71958984 28.82603516 4.71958984 28.82603516 6.41015625 28.83984375 C7.26480469 28.85144531 8.11945313 28.86304687 9 28.875 C10.92168561 37.71475382 8.93490851 45.2504745 4.26953125 52.9140625 C3.64111328 53.88472656 3.64111328 53.88472656 3 54.875 C2.443125 55.761875 1.88625 56.64875 1.3125 57.5625 C-2.27675466 61.15175466 -6.61363841 63.3779227 -11 65.875 C-11.99 66.535 -12.98 67.195 -14 67.875 C-22.8687597 70.21123368 -33.85367108 69.92589515 -42.15625 65.8046875 C-46.27436635 63.36147668 -50.04723785 60.68501567 -53 56.875 C-53.18376678 53.19966441 -52.0214549 51.9024146 -49.75 49 C-47 46.875 -47 46.875 -44.4375 46.8125 C-42 47.875 -42 47.875 -40.25 49.75 C-36.14325669 53.62859091 -30.94674944 54.67007901 -25.4375 55.25 C-18.1768504 54.45792913 -13.37444472 52.09996368 -8.40625 46.69140625 C-4.94800374 42.22450483 -4.69271494 37.17195551 -4.24609375 31.73046875 C-3.84707363 28.72198371 -3.36901588 28.88823586 -0.27734375 28.77734375 Z " fill="#d0ae7d"/>
</svg>
